<?xml version="1.0" encoding="iso-8859-1"?>
<!-- Generator: Adobe Illustrator 19.0.0, SVG Export Plug-In . SVG Version: 6.00 Build 0)  -->
<svg version="1.1" id="Capa_1" xmlns="http://www.w3.org/2000/svg" xmlns:xlink="http://www.w3.org/1999/xlink" x="0px" y="0px"
	 viewBox="0 0 512 512" style="enable-background:new 0 0 512 512;" xml:space="preserve">
<g>
	<path style="fill:#BABABA;" d="M209.045,57.166c-11.134-11.602-12.046-43.244-12.116-49.47c-0.047-4.204,3.323-7.649,7.526-7.696
		c4.154-0.043,7.647,3.321,7.696,7.523l0,0c0.15,12.615,2.758,33.767,7.877,39.102c2.911,3.033,2.812,7.851-0.221,10.762
		C216.776,60.297,211.957,60.201,209.045,57.166z"/>
	<path style="fill:#BABABA;" d="M294.657,57.387c-3.033-2.911-3.132-7.729-0.221-10.762c5.119-5.334,7.727-26.486,7.877-39.101
		c0.05-4.203,3.497-7.584,7.699-7.522c4.202,0.049,7.57,3.492,7.523,7.694c-0.069,6.226-0.98,37.868-12.116,49.471
		C302.509,60.199,297.691,60.299,294.657,57.387z"/>
	<path style="fill:#BABABA;" d="M470.157,271.115c-3.195,0,2.652,3.267-79.973-51.43l-77.92-5.963
		c-4.191-0.321-7.33-3.979-7.008-8.17c0.321-4.191,3.968-7.336,8.17-7.008c85.941,6.577,81.159,5.798,83.514,7.356l77.427,51.256
		C480.663,261.325,477.647,271.115,470.157,271.115z"/>
	<path style="fill:#BABABA;" d="M441.012,382.586l-60.424-100.711l-72.638-37.01c-3.746-1.908-5.235-6.492-3.327-10.237
		c1.908-3.746,6.492-5.234,10.237-3.327c81.143,41.343,76.062,38.21,77.657,40.869l61.549,102.585
		c2.163,3.605,0.994,8.28-2.611,10.443C447.855,387.358,443.177,386.195,441.012,382.586z"/>
	<path style="fill:#BABABA;" d="M297.106,177.071c-1.176-4.036,1.141-8.261,5.177-9.438l62.573-18.243l49.67-72.848
		c2.368-3.473,7.103-4.37,10.577-2.001c3.473,2.368,4.369,7.104,2.001,10.577l-51.209,75.103
		c-2.133,3.127,1.222,1.451-69.352,22.026C302.501,183.426,298.281,181.101,297.106,177.071z"/>
	<path style="fill:#BABABA;" d="M41.842,271.115c-7.49,0-10.505-9.791-4.208-13.96c83.425-55.225,78.231-52.282,81.049-52.498
		l79.893-6.114c4.183-0.334,7.849,2.817,8.17,7.008c0.321,4.191-2.817,7.849-7.008,8.17l-77.92,5.963
		C40.305,273.644,45.101,271.114,41.842,271.115z"/>
	<path style="fill:#BABABA;" d="M60.543,385.197c-3.605-2.163-4.774-6.838-2.611-10.443l61.549-102.585
		c1.596-2.662-3.38,0.421,77.658-40.869c3.743-1.909,8.329-0.419,10.237,3.327c1.908,3.745,0.419,8.329-3.327,10.237l-72.639,37.01
		L70.987,382.586C68.824,386.192,64.146,387.359,60.543,385.197z"/>
	<path style="fill:#BABABA;" d="M205.455,182.248c-70.456-20.541-67.206-18.88-69.352-22.026L84.894,85.119
		c-2.368-3.473-1.472-8.209,2.001-10.577c3.474-2.368,8.209-1.472,10.577,2.001l49.67,72.848l62.573,18.243
		c4.036,1.176,6.353,5.402,5.177,9.438C213.714,181.115,209.48,183.423,205.455,182.248z"/>
</g>
<path style="fill:#585A60;" d="M296.564,263.503h-78.659c-122.252,42.505-60.574,248.486,39.33,248.486
	C357.112,511.988,418.85,306.019,296.564,263.503z"/>
<path style="fill:#424449;" d="M217.821,264.947h78.824c30.611-33.82,24.056-94.911-13.016-117.729h-52.795
	C193.768,170.037,187.211,231.134,217.821,264.947z"/>
<path style="fill:#585A60;" d="M230.859,148.761h52.752c27.363-7.857,46.779-27.565,46.779-50.649
	c0-29.989-32.753-54.302-73.155-54.302s-73.157,24.312-73.157,54.302C184.078,121.197,203.492,140.905,230.859,148.761z"/>
<path style="fill:#424449;" d="M238.283,263.503h-20.379C91.293,307.524,162.1,526.461,267.423,511.243
	C173.326,497.648,120.463,304.467,238.283,263.503z"/>
<path style="fill:#32353A;" d="M251.213,147.217h-20.379c-37.066,22.82-43.623,83.916-13.013,117.729H238.2
	C207.589,231.133,214.148,170.036,251.213,147.217z"/>
<path style="fill:#424449;" d="M204.456,98.113c0-27.422,27.391-50.084,62.967-53.766c-44.32-4.588-83.346,20.954-83.346,53.766
	c0,23.084,19.414,42.791,46.781,50.649h20.379C223.87,140.905,204.456,121.197,204.456,98.113z"/>
<path style="fill:#75777C;" d="M152.612,340.66h209.243c-2.781-14.32-7.831-26.926-14.719-37.709H167.333
	C160.444,313.734,155.395,326.339,152.612,340.66z"/>
<path style="fill:#585A60;" d="M167.333,302.95c-7.057,10.586-12.301,25.135-14.719,37.709h20.379
	c2.782-14.321,7.831-26.926,14.72-37.709H167.333z"/>
<path style="fill:#75777C;" d="M157.531,416.38h199.405c3.667-12.239,6.057-24.959,6.969-37.709H150.559
	C151.474,391.422,153.863,404.141,157.531,416.38z"/>
<path style="fill:#585A60;" d="M177.913,416.38c-3.669-12.239-6.063-24.958-6.975-37.709h-20.377
	c0.948,13.056,3.354,25.631,6.97,37.709H177.913z"/>
<path style="fill:#75777C;" d="M173.782,454.09c44.762,77.127,122.208,77.009,166.901,0H173.782z"/>
<path style="fill:#585A60;" d="M267.415,511.241c-29.564-4.275-55.626-26.784-73.254-57.153h-20.378
	C193.865,488.847,227.823,516.934,267.415,511.241z"/>
<g>
	<path style="fill:#75777C;" d="M202.075,62.466v6.185c0,6.726,5.453,12.179,12.178,12.179c7.739,0,12.619-5.877,12.619-12.179
		v-19.94C217.326,51.95,208.887,56.664,202.075,62.466z"/>
	<path style="fill:#75777C;" d="M287.595,48.712v19.94c0,6.726,5.453,12.179,12.179,12.179c7.739,0,12.619-5.877,12.619-12.179
		v-6.185C305.582,56.664,297.142,51.95,287.595,48.712z"/>
</g>
<g>
</g>
<g>
</g>
<g>
</g>
<g>
</g>
<g>
</g>
<g>
</g>
<g>
</g>
<g>
</g>
<g>
</g>
<g>
</g>
<g>
</g>
<g>
</g>
<g>
</g>
<g>
</g>
<g>
</g>
</svg>
