<?xml version="1.0" encoding="iso-8859-1"?>
<!-- Generator: Adobe Illustrator 19.0.0, SVG Export Plug-In . SVG Version: 6.00 Build 0)  -->
<svg version="1.1" id="Layer_1" xmlns="http://www.w3.org/2000/svg" xmlns:xlink="http://www.w3.org/1999/xlink" x="0px" y="0px"
	 viewBox="0 0 512 512" style="enable-background:new 0 0 512 512;" xml:space="preserve">
<path style="fill:#58413C;" d="M488.438,35.152c14.146,0.015,25.075,12.559,23.39,26.604l-21.09,175.75
	c-1.434,11.947-11.569,20.939-23.602,20.939H273.864l0,0c0-13.998,2.084-27.905,6.424-41.213
	C297.657,163.973,353.635,35.016,488.438,35.152z"/>
<path style="fill:#695046;" d="M280.288,217.231c11.076-33.963,37.898-98.67,90.806-141.093
	c-35.893,32.045-38.204,64.206-38.642,79.959c0,0,24.03,77.226,29.054,92.857c0.903,2.81,0.861,6.061,0.225,9.49h-87.868
	C273.863,244.446,275.948,230.539,280.288,217.231z"/>
<path style="fill:#58413C;" d="M452.498,258.444c20.667,0,37.137,16.997,36.775,37.661c-0.88,50.129-10.874,136.756-66.22,173.82
	c-12.925,8.655-29.726,9.023-43.639,2.067l-53.774-26.887c-10.299-5.15-18.212-14.079-22.085-24.924l-38.623-108.146v-53.59H452.498
	L452.498,258.444z"/>
<path style="fill:#73C8EB;" d="M451.54,290.339c0.611,2.442,0.163,5.026-1.233,7.121l-13.249,19.873
	c-1.53,2.293-1.914,5.164-1.042,7.78l5.805,17.415c1.07,3.21,0.234,6.748-2.158,9.141l-19.316,19.316
	c-2.218,2.218-3.111,5.438-2.349,8.482l5.539,22.156c1.197,4.785-1.713,9.635-6.499,10.831l-18.397,4.6
	c-4.786,1.197-7.696,6.046-6.499,10.832l4.76,19.038c1.132,4.527-1.413,9.164-5.84,10.64l-23.761,8.376l-41.66-20.831
	c-10.299-5.149-18.212-14.079-22.085-24.923l-38.623-108.146v-53.59h178.127L451.54,290.339z"/>
<path style="fill:#91DCFF;" d="M451.138,295.377l-177.274-36.933h169.195l8.481,31.893
	C451.965,292.039,451.702,293.752,451.138,295.377z"/>
<path style="fill:#6AAACA;" d="M392.916,430.977l-127.985-160.61v-11.923h13.342L403.66,415.795l-5.02,1.255
	c-4.786,1.197-7.696,6.046-6.499,10.832L392.916,430.977z"/>
<path style="fill:#695046;" d="M321.21,396.757c4.142,8.974,9.506,17.333,15.939,24.838l42.709,49.828
	c-0.247,0.317-0.197,0.252-0.444,0.569l-53.774-26.888c-10.299-5.15-18.213-14.08-22.086-24.924l-38.623-108.144v-50.765
	l8.932-2.826v20.033c0,10.34,2.244,20.555,6.577,29.944L321.21,396.757z"/>
<path style="fill:#73C8EB;" d="M436.654,58.994l9.085,6.814c3.793,2.845,4.703,8.156,2.073,12.1l-9.115,13.672
	c-2.361,3.543-1.895,8.26,1.115,11.27l16.44,16.44c3.011,3.011,3.478,7.728,1.116,11.271l-10.498,15.748c-2,3-2,6.909,0,9.909
	l11.685,17.529c1.777,2.667,1.991,6.081,0.557,8.948l-4.959,9.919c-1.06,2.119-1.234,4.571-0.485,6.818l5.422,16.266
	c1.498,4.495,1.15,9.401-0.969,13.638l-14.554,29.11H273.864l13.742-7.232c8.899-4.685,15.436-12.858,17.927-22.602
	c9.109-35.628,38.515-125.887,110.734-170.404C422.611,54.295,430.691,54.523,436.654,58.994z"/>
<path style="fill:#6AAACA;" d="M287.605,251.212c8.899-4.684,15.436-12.857,17.927-22.602c4.116-16.097,12.439-43.367,26.919-72.512
	c2.048,9.777,5.731,19.01,10.51,27.568c32.639-49.332,73.173-78.009,95.289-91.073c-1.691,3.396-1.181,7.516,1.561,10.258
	l6.074,6.074c-21.711,13.137-61.539,41.917-92.045,90.785c2.807,3.473,5.758,6.807,8.877,9.913l96.995-33.139
	c0.529,2.054,0.376,4.256-0.602,6.212l-4.959,9.919c-0.765,1.53-0.899,3.221-0.727,4.895l-74.736,25.535
	c15.683,11.068,32.713,17.539,47.014,17.539h26.795l-8.932,17.863H273.864L287.605,251.212z"/>
<path style="fill:#58413C;" d="M23.561,35.152C9.415,35.165-1.514,47.71,0.172,61.755l21.09,175.75
	c1.434,11.947,11.569,20.939,23.602,20.939h193.272l0,0c0-13.998-2.084-27.905-6.424-41.213
	C214.343,163.973,158.365,35.016,23.561,35.152z"/>
<path style="fill:#695046;" d="M231.712,217.231c-11.076-33.963-37.898-98.67-90.806-141.093
	c35.893,32.045,38.204,64.206,38.642,79.959c0,0-24.03,77.226-29.055,92.857c-0.903,2.81-0.861,6.061-0.226,9.49h87.868
	C238.136,244.446,236.051,230.539,231.712,217.231z"/>
<path style="fill:#58413C;" d="M59.501,258.444c-20.667,0-37.137,16.997-36.775,37.661c0.88,50.129,10.874,136.756,66.22,173.82
	c12.925,8.655,29.726,9.023,43.639,2.067l53.774-26.887c10.299-5.15,18.212-14.079,22.085-24.924l38.623-108.146v-53.59H59.501
	L59.501,258.444z"/>
<path style="fill:#73C8EB;" d="M60.46,290.339c-0.611,2.442-0.163,5.026,1.233,7.121l13.249,19.873
	c1.53,2.293,1.914,5.164,1.042,7.78l-5.805,17.415c-1.07,3.21-0.234,6.748,2.158,9.141l19.316,19.316
	c2.218,2.218,3.11,5.438,2.349,8.482l-5.539,22.156c-1.197,4.785,1.713,9.635,6.499,10.831l18.397,4.6
	c4.786,1.197,7.696,6.046,6.499,10.832l-4.76,19.038c-1.132,4.527,1.413,9.164,5.84,10.64l23.761,8.376l41.66-20.831
	c10.299-5.149,18.212-14.079,22.085-24.923l38.623-108.146v-53.59H68.941L60.46,290.339z"/>
<path style="fill:#91DCFF;" d="M60.862,295.377l177.274-36.933H68.941l-8.481,31.893C60.035,292.039,60.298,293.752,60.862,295.377z
	"/>
<path style="fill:#6AAACA;" d="M119.084,430.977l127.985-160.609v-11.923h-13.342L108.34,415.795l5.02,1.255
	c4.786,1.197,7.696,6.046,6.499,10.832L119.084,430.977z"/>
<path style="fill:#695046;" d="M190.79,396.757c-4.142,8.974-9.506,17.333-15.939,24.838l-42.709,49.828
	c0.247,0.317,0.197,0.252,0.444,0.569l53.774-26.888c10.299-5.15,18.213-14.08,22.086-24.924l38.623-108.144v-50.765l-8.932-2.826
	v20.033c0,10.34-2.244,20.555-6.577,29.944L190.79,396.757z"/>
<path style="fill:#73C8EB;" d="M75.346,58.994l-9.085,6.814c-3.793,2.845-4.703,8.156-2.073,12.1l9.115,13.672
	c2.361,3.543,1.895,8.26-1.115,11.27l-16.44,16.44c-3.011,3.011-3.478,7.728-1.116,11.271l10.498,15.748c2,3,2,6.909,0,9.909
	l-11.685,17.529c-1.777,2.667-1.991,6.081-0.557,8.948l4.959,9.919c1.06,2.119,1.234,4.571,0.485,6.818l-5.422,16.266
	c-1.498,4.495-1.15,9.401,0.969,13.638l14.554,29.11h169.703l-13.741-7.232c-8.899-4.685-15.436-12.858-17.927-22.602
	c-9.109-35.628-38.515-125.887-110.734-170.404C89.389,54.295,81.309,54.523,75.346,58.994z"/>
<path style="fill:#58413C;" d="M256.761,320.967h-1.521c-9.445,0-17.103-7.657-17.103-17.103v-55.111
	c0-9.445,7.657-17.103,17.103-17.103h1.521c9.445,0,17.103,7.657,17.103,17.103v55.111
	C273.863,313.31,266.206,320.967,256.761,320.967z"/>
<g>
	<path style="fill:#908490;" d="M247.068,236.115c-2.469,0-4.466-1.997-4.466-4.466c0-57.009-17.419-105.161-17.593-105.641
		c-0.846-2.316,0.341-4.885,2.661-5.731c2.303-0.846,4.885,0.341,5.731,2.652c0.741,2.024,18.134,50.141,18.134,108.721
		C251.534,234.118,249.536,236.115,247.068,236.115z"/>
	<path style="fill:#908490;" d="M264.931,236.115c-2.469,0-4.466-1.997-4.466-4.466c0-58.58,17.392-106.696,18.134-108.721
		c0.855-2.307,3.402-3.507,5.731-2.652c2.32,0.846,3.507,3.411,2.661,5.726c-0.174,0.48-17.593,48.715-17.593,105.646
		C269.397,234.118,267.4,236.115,264.931,236.115z"/>
</g>
<path style="fill:#695046;" d="M264.931,222.717h-17.863c-4.933,0-8.932,3.999-8.932,8.932l0,0c0,4.933,3.999,8.932,8.932,8.932
	h17.863c4.933,0,8.932-3.999,8.932-8.932l0,0C273.863,226.717,269.865,222.717,264.931,222.717z"/>
<path style="fill:#6AAACA;" d="M224.394,251.212c-8.899-4.684-15.436-12.857-17.927-22.602
	c-4.116-16.097-12.439-43.367-26.919-72.512c-2.048,9.777-5.731,19.01-10.51,27.568c-32.639-49.332-73.173-78.009-95.289-91.073
	c1.691,3.396,1.181,7.516-1.561,10.258l-6.074,6.074c21.711,13.137,61.539,41.917,92.045,90.785
	c-2.807,3.473-5.758,6.807-8.877,9.913l-96.995-33.139c-0.529,2.054-0.376,4.256,0.602,6.212l4.959,9.919
	c0.765,1.53,0.899,3.221,0.727,4.895l74.736,25.535c-15.683,11.068-32.713,17.539-47.014,17.539H59.501l8.932,17.863h169.703
	L224.394,251.212z"/>
<g>
</g>
<g>
</g>
<g>
</g>
<g>
</g>
<g>
</g>
<g>
</g>
<g>
</g>
<g>
</g>
<g>
</g>
<g>
</g>
<g>
</g>
<g>
</g>
<g>
</g>
<g>
</g>
<g>
</g>
</svg>
