<?xml version="1.0" encoding="iso-8859-1"?>
<!-- Generator: Adobe Illustrator 19.0.0, SVG Export Plug-In . SVG Version: 6.00 Build 0)  -->
<svg version="1.1" id="Layer_1" xmlns="http://www.w3.org/2000/svg" xmlns:xlink="http://www.w3.org/1999/xlink" x="0px" y="0px"
	 viewBox="0 0 460 460" style="enable-background:new 0 0 460 460;" xml:space="preserve">
<g id="XMLID_2718_">
	<path id="XMLID_9_" style="fill:#C1B9B0;" d="M100,57.189H80V35.117c0-3.744,3.912-6.18,7.236-4.505l0,0
		C95.059,34.552,100,42.607,100,51.417V57.189z"/>
	<path id="XMLID_229_" style="fill:#5B564F;" d="M460,229.978v171.405h-10c-11.046,0-20-8.954-20-20V209.978h10
		C451.046,209.978,460,218.932,460,229.978z"/>
	<path id="XMLID_222_" style="fill:#E4DEDA;" d="M440,198.225v90.666c0,5.564-4.477,10.074-10,10.074h-21.751
		c-6.202,0-12.371,0.472-18.475,1.37l-8.381,50.656c-0.115,0.694-0.429,1.361-0.884,1.996C374.061,361.98,370,372.48,370,383.574
		v26.204c0,5.564-4.477,10.074-10,10.074v10.074V440h-30l7.236-14.579c1.694-3.413,5.156-5.569,8.944-5.569H350v-8.832v-27.446
		c0-11.094-4.061-21.594-10.509-30.588c-0.455-0.635-0.769-1.302-0.884-1.996l-5.906-35.695c-14.815,2.4-33.017,3.817-52.702,3.817
		c-12.033,0-23.508-0.531-34-1.49v31.712c0,1.391-0.276,2.716-0.776,3.921c-5.487,13.24-9.095,27.211-9.095,41.587v14.935
		c0,5.564-4.419,10.074-9.87,10.074h-9.87v-25.01c0-14.376-3.608-28.347-9.095-41.587c-0.5-1.205-0.776-2.53-0.776-3.921v-38.737
		c-1.817-0.574-3.51-1.169-5.055-1.786c-15.851-6.322-32.664-9.847-49.712-9.847H150c-11.046,0-20-9.021-20-20.148v-38.964
		c0-7.457-2.054-14.768-5.934-21.119l-40.369-66.084c-1.82-2.979-5.044-4.794-8.517-4.794H11.333C5.074,147.855,0,142.593,0,136.102
		c0-14.685,7.077-28.399,18.86-36.544L100,43.461V25.044c0-3.745,3.912-6.18,7.236-4.505c3.103,1.563,5.743,3.781,7.811,6.429
		h21.146c13.577,0,26.626,5.509,35.999,15.404c17.197,18.155,27.805,42.934,27.808,70.215c0,0.523,0.168,1.032,0.485,1.447
		l18.134,23.749L240,168.003h170C426.569,168.003,440,181.534,440,198.225z"/>
	<path id="XMLID_2_" style="fill:#D1C9C1;" d="M440,273.779v15.111c0,5.564-4.477,10.074-10,10.074l-8.607,52.026
		c-0.115,0.694-0.429,1.361-0.884,1.996C414.061,361.98,410,372.48,410,383.574v26.204c0,5.564-4.477,10.074-10,10.074V440h-30
		l7.236-14.579c1.694-3.413,5.156-5.569,8.944-5.569H390v-36.278c0-10.796-3.852-21.024-10-29.854c-6.148,8.83-10,19.058-10,29.854
		v26.204c0,5.564-4.477,10.074-10,10.074v10.074V440h-30l7.236-14.579c1.694-3.413,5.156-5.569,8.944-5.569H350v-8.832v-27.446
		c0-11.094-4.061-21.594-10.509-30.588c-0.455-0.635-0.769-1.302-0.884-1.996l-5.906-35.695c-14.815,2.4-33.017,3.817-52.702,3.817
		c-30.347,0-56.941-3.334-73.244-8.485l-0.238,38.707c0,1.391-0.276,2.716-0.776,3.921c-5.487,13.24-9.095,27.211-9.095,41.587
		v14.935c0,5.564-4.419,10.074-9.87,10.074V440h-29.611l7.142-14.579c1.672-3.413,5.09-5.569,8.828-5.569h3.77v-25.01
		c0-14.376-3.608-28.347-9.095-41.587c-0.5-1.205-0.776-2.53-0.776-3.921v-49.428c-5.061-0.617-10.163-0.941-15.286-0.941H150
		c-11.046,0-20-9.021-20-20.148v-38.964c0-7.457-2.054-14.768-5.934-21.119L83.697,152.65c-1.82-2.979-5.044-4.794-8.517-4.794
		H11.333C5.074,147.855,0,142.593,0,136.102c0-14.685,7.077-28.399,18.86-36.544l3.225-2.23c-1.36,4.333-2.085,8.911-2.085,13.59
		c0,6.491,5.074,11.753,11.333,11.753h63.848c3.473,0,6.697,1.815,8.517,4.794l40.369,66.084c3.88,6.351,5.934,13.662,5.934,21.119
		v38.965c0,11.127,8.954,20.148,20,20.148h1.751c17.048,0,33.861,3.525,49.712,9.847c15.412,6.147,44.808,10.301,78.536,10.301
		s63.124-4.154,78.536-10.301c15.851-6.322,32.664-9.847,49.712-9.847H440V273.779z"/>
	<path id="XMLID_230_" style="fill:#777269;" d="M173.137,419.852h13.641V440h-29.611l7.142-14.579
		C165.981,422.008,169.399,419.852,173.137,419.852z"/>
	<path id="XMLID_1781_" style="fill:#968C86;" d="M380,353.72c-6.148,8.83-10,19.058-10,29.854v26.204
		c0,5.564-4.477,10.074-10,10.074v10.074V440h-30l7.236-14.579c1.694-3.413,5.156-5.569,8.944-5.569H350v-8.832v-27.446
		c0-11.094-4.061-21.594-10.509-30.588c-0.455-0.635-0.769-1.302-0.884-1.996l-5.906-35.695c10.569-1.712,19.417-3.924,25.834-6.484
		c4.068-1.622,8.199-3.057,12.382-4.299l7.689,46.478c0.115,0.694,0.429,1.361,0.884,1.996
		C379.665,353.228,379.83,353.476,380,353.72z"/>
	<path id="XMLID_1593_" style="fill:#968C86;" d="M252.178,296.208c-2.394,6.966-4.404,14.113-5.992,21.419
		c-0.085-0.008-0.186,31.707-0.186,31.707c0,1.391-0.276,2.716-0.776,3.921c-5.487,13.24-9.095,27.211-9.095,41.587v14.935
		c0,5.564-4.419,10.074-9.87,10.074V440h-29.611l7.142-14.579c1.672-3.413,5.09-5.569,8.828-5.569h3.77v-25.01
		c0-14.376-3.608-28.347-9.095-41.587c-0.499-1.205-0.776-2.53-0.776-3.92v-0.001l0.238-38.707c1.02-4.867,2.208-9.671,3.527-14.419
		L252.178,296.208L252.178,296.208z"/>
	<path id="XMLID_1551_" style="fill:#5E574E;" d="M212.619,419.852h13.641V440h-29.611l7.142-14.579
		C205.462,422.008,208.88,419.852,212.619,419.852z"/>
	<path id="XMLID_1552_" style="fill:#5E574E;" d="M345.97,419.852h13.641V440H330l7.142-14.579
		C338.814,422.008,342.232,419.852,345.97,419.852z"/>
	<path id="XMLID_1575_" style="fill:#777269;" d="M386.18,419.852c-3.788,0-7.25,2.156-8.944,5.569L370,440h30v-20.148H386.18z"/>
	<path id="XMLID_1467_" style="fill:#777269;" d="M239.385,168.003c-35.036,35.722-60.286,81.195-71.391,132.019
		c-5.369-0.694-10.786-1.057-16.227-1.057h-1.751c-9.324,0-17.135-6.438-19.35-15.135c11.636-47.587,34.124-90.864,64.677-127.021
		H230L239.385,168.003z"/>
	<path id="XMLID_515_" style="fill:#777269;" d="M176.875,76.065v46.1h-5.274c-22.264,24.697-41.085,52.598-55.71,82.933
		l-24.357-39.873c18.61-33.006,41.836-63.022,68.795-89.161h16.546V76.065z"/>
	<path id="XMLID_1888_" style="fill:#777269;" d="M416.035,168.592c-1.91-0.384-3.885-0.589-5.907-0.589H301.589
		c-47.739,32.954-82.464,83.632-94.833,142.624c9.844,3.097,23.491,5.546,39.43,7C263.751,236.809,332.218,175.183,416.035,168.592z
		"/>
	<path id="XMLID_1879_" style="fill:#777269;" d="M440,209.978h-8.5v0.005c-0.111,0-0.222-0.005-0.333-0.005
		c-68.197,0-125.704,46.104-143.486,109.06c15.271-0.29,29.457-1.431,41.601-3.213c16.944-38.607,55.289-65.55,99.885-65.55
		c3.656,0,7.269,0.185,10.833,0.538v90.127c0,11.127,8.954,20.148,20,20.148V230.126C460,218.998,451.046,209.978,440,209.978z"/>
	<path id="XMLID_1765_" style="fill:#5B564F;" d="M132.502,174.618c-6.012,9.852-11.567,20.018-16.611,30.481l-24.357-39.873
		c5.524-9.797,11.464-19.323,17.778-28.57L132.502,174.618z"/>
	<path id="XMLID_1792_" style="fill:#5B564F;" d="M170.781,273.779c-11.046,0-20-9.021-20-20.148v-26.83
		c-8.22,17.71-14.835,36.328-19.656,55.665c1.707,9.382,9.849,16.498,19.656,16.498h1.102h0.649c5.228,0,10.433,0.335,15.595,0.977
		c1.944-8.882,4.328-17.596,7.112-26.127c-0.902-0.02-1.804-0.035-2.707-0.035L170.781,273.779L170.781,273.779z"/>
	<path id="XMLID_1795_" style="fill:#5B564F;" d="M214.992,281.229c-3.363,9.529-6.137,19.339-8.246,29.398
		c9.844,3.097,23.491,5.546,39.43,7c1.979-9.104,4.609-17.961,7.828-26.526c-13.558-1.808-24.816-4.39-32.55-7.475
		C219.317,282.775,217.162,281.978,214.992,281.229z"/>
	<path id="XMLID_1801_" style="fill:#5B564F;" d="M300,293.927c-0.908,0-1.812-0.004-2.714-0.01
		c-3.912,7.999-7.142,16.396-9.606,25.12c0.004,0,0.009,0,0.013,0c11.422-0.217,22.236-0.911,32.042-1.992
		c0.043-0.005,0.087-0.01,0.13-0.014c1.596-0.177,7.921-0.987,9.415-1.206h0.001c3.878-8.835,8.888-17.049,14.825-24.479
		C331.071,292.988,316.027,293.927,300,293.927z"/>
	<path id="XMLID_2583_" style="fill:#A59C95;" d="M115.047,26.967h21.146c13.577,0,26.626,5.509,35.999,15.404
		c17.197,18.155,27.805,42.934,27.808,70.215c0,0.523,0.168,1.032,0.485,1.447l18.134,23.749L240,168.003h-20h-1.382
		c-9.314,0-18.1-4.358-23.779-11.795l-18.133-23.747c-4.34-5.683-6.711-12.651-6.707-19.821c0.019-32.5-21.17-59.856-50-68.045
		v-3.251C120,36.028,118.192,30.995,115.047,26.967z"/>
	<path id="XMLID_440_" style="fill:#C6BCB5;" d="M240,168.003h-11.5l-21.381-30.221l-18.134-23.749
		c-0.316-0.415-0.485-0.924-0.485-1.447c-0.003-27.281-10.611-52.06-27.808-70.215c-9.373-9.895-22.422-15.404-35.999-15.404h11.5
		c13.577,0,26.626,5.509,35.999,15.404c17.197,18.155,27.805,42.934,27.808,70.215c0,0.523,0.168,1.032,0.485,1.447l18.134,23.749
		L240,168.003z"/>
	<path id="XMLID_1913_" style="fill:#5B564F;" d="M0,136.102c0,6.491,5.074,11.753,11.333,11.753H30v-56l-11.14,7.702
		C7.077,107.703,0,121.417,0,136.102z"/>
	<path id="XMLID_1525_" style="fill:#777269;" d="M30,91.856v31.407h-8.667c-6.259,0-11.333-3.984-11.333-8.899
		c0-2.771,0.458-5.491,1.304-8.115c2.235-2.501,4.758-4.757,7.556-6.691L30,91.856z"/>
	<path id="XMLID_233_" style="fill:#D1C9C1;" d="M90,82.374c0-8.345,6.716-15.111,15-15.111s15,6.765,15,15.111
		s-6.716,15.111-15,15.111S90,90.72,90,82.374z"/>
	<path id="XMLID_1526_" style="fill:#777269;" d="M105,87.411c2.761,0,5-2.255,5-5.037c0-2.782-2.239-5.037-5-5.037
		s-5,2.255-5,5.037C100,85.156,102.239,87.411,105,87.411z"/>
</g>
<g>
</g>
<g>
</g>
<g>
</g>
<g>
</g>
<g>
</g>
<g>
</g>
<g>
</g>
<g>
</g>
<g>
</g>
<g>
</g>
<g>
</g>
<g>
</g>
<g>
</g>
<g>
</g>
<g>
</g>
</svg>
