<?xml version="1.0" encoding="iso-8859-1"?>
<!-- Generator: Adobe Illustrator 19.0.0, SVG Export Plug-In . SVG Version: 6.00 Build 0)  -->
<svg version="1.1" id="Layer_1" xmlns="http://www.w3.org/2000/svg" xmlns:xlink="http://www.w3.org/1999/xlink" x="0px" y="0px"
	 viewBox="0 0 512 512" style="enable-background:new 0 0 512 512;" xml:space="preserve">
<circle style="fill:#A7D9FF;" cx="256" cy="256" r="256"/>
<path style="fill:#FFFFFF;" d="M171.522,118.191c-0.97,0-1.898,0.153-2.799,0.377c-3.038-3.28-7.344-5.366-12.167-5.366
	c-3.042,0-5.855,0.877-8.308,2.302c-3.041-2.322-6.796-3.755-10.918-3.755c-1.507,0-2.948,0.239-4.348,0.586
	c-4.718-5.095-11.408-8.335-18.9-8.335c-14.266,0-25.831,11.565-25.831,25.831h94.912
	C183.163,123.402,177.951,118.191,171.522,118.191z"/>
<g style="opacity:0.5;">
	<path style="fill:#FFFFFF;" d="M216.588,184c0-7.225-5.857-13.081-13.081-13.081c-1.09,0-2.133,0.172-3.146,0.424
		c-3.413-3.686-8.253-6.03-13.673-6.03C176.367,165.312,168,173.679,168,184H216.588z"/>
</g>
<polygon style="fill:#DCD7C3;" points="127.66,156.506 113.362,276.521 134.809,276.521 141.957,156.506 "/>
<polygon style="fill:#FFFFFF;" points="177.702,156.506 192,276.521 170.553,276.521 163.404,156.506 "/>
<g>
	<polygon style="fill:#EDEBE1;" points="170.553,276.521 134.809,276.521 141.957,156.506 163.404,156.506 	"/>
	<polygon style="fill:#EDEBE1;" points="127.66,156.506 120.511,148.505 184.851,148.505 177.702,156.506 	"/>
</g>
<polygon style="fill:#DCD7C3;" points="163.404,156.506 163.404,148.505 120.511,148.505 127.66,156.506 "/>
<path style="fill:#EB7869;" d="M152.681,116.501l-10.723,8.001v24.003h21.447v-24.003L152.681,116.501z M159.83,140.504h-14.298
	v-16.002h14.298V140.504z"/>
<polygon style="fill:#D7645A;" points="152.681,112 138.383,124.502 166.979,124.502 "/>
<g>
	<rect x="149.11" y="179.51" style="fill:#78A0B4;" width="7.149" height="13.335"/>
	<rect x="149.11" y="231.18" style="fill:#78A0B4;" width="7.149" height="13.335"/>
	<rect x="149.11" y="205.34" style="fill:#78A0B4;" width="7.149" height="13.335"/>
</g>
<path style="fill:#649BD2;" d="M10.337,328C41.451,434.318,139.624,512,256,512s214.549-77.682,245.663-184H10.337z"/>
<g>
	<path style="fill:#82BADC;" d="M280,384c0,8,40.132,24.984-16,32c-64,8-64,56-16,64c20.8,3.467,70.143,5.429,119.384,6.542
		c51.691-25.038,93.659-66.971,118.807-118.609C466.432,367.214,280,368,280,384z"/>
	<path style="fill:#82BADC;" d="M12.767,336h486.466c1.73-5.262,3.31-10.593,4.701-16H8.065
		C9.457,325.407,11.037,330.738,12.767,336z"/>
</g>
<path style="fill:#DCD7C3;" d="M192,352h248c0,0-24-32-64-32c-19.333,0-40.161-21.737-56-24c-28-4-36.5,8-52.5,8
	c-21.5,0-62.5-43-99.5-43c-28.5,0-31.5,5-54,5c-16,0-34-10-58-10S8,272,8,272l32,80H192z"/>
<g>
	<path style="fill:#CDC3AF;" d="M440,352c0,0-28.446-19.949-67-15.5c-17.333,2-34.5-16-53-16.5c-28.656-0.775-29,17-52,10.667
		c-8.231-2.267-15.667-14-44-18.667c-25.212-4.153-19.333-26-56-32c-35.679-5.838-45.813,5.65-69.667,3
		c-24-2.667-60.417-27.75-91.083-3.75L32,352H440z"/>
	<path style="fill:#CDC3AF;" d="M2.772,293.593c4.79,32.541,15.734,63.059,31.561,90.407H224c0,0-24-56-96-56
		C96.673,328,40.896,298.674,2.772,293.593z"/>
</g>
<g>
	<path style="fill:#DCD7C3;" d="M167.124,392c-8.761-15.054-24.889-25.288-43.562-25.288S88.761,376.946,80,392H167.124z"/>
	<path style="fill:#DCD7C3;" d="M192,392c-6.348-10.907-18.033-18.322-31.562-18.322s-25.214,7.415-31.562,18.322H192z"/>
	<path style="fill:#DCD7C3;" d="M121.333,308c-4.667-6-24.689-19.361-56-18c-12.364,0.538-50.696-17.545-65.095-24.577
		c0.547,15.106,2.378,29.878,5.433,44.207C56,312,56,336,85.333,342.667C98.101,345.568,152,328,168,352c10.835,16.252,40,8,56,32
		c0,0-3.798-29.822-14.667-42.667C202,332.667,129.771,318.849,121.333,308z"/>
</g>
<path style="fill:#CDC3AF;" d="M256,512c68.079,0,129.902-26.625,175.76-69.967C377.103,452.144,304,464,244,441.333
	C176.117,415.688,104,424,68.273,429.983C115.028,480.408,181.811,512,256,512z"/>
<g>
	<path style="fill:#DCD7C3;" d="M207,453c1.611-12.885-4.118-25.579-14.852-32.886C183.018,413.9,171.36,408,160,408
		c-24,0-31,11.333-36.333,20.667C119.399,436.136,115,453,128,453S207,453,207,453L207,453z"/>
	<path style="fill:#DCD7C3;" d="M154.394,442.333c1.244-8.134-3.181-16.146-11.473-20.759c-7.052-3.923-16.058-7.647-24.834-7.647
		c-18.54,0-23.947,7.154-28.067,13.045c-3.297,4.715-6.695,15.36,3.347,15.36S154.394,442.333,154.394,442.333L154.394,442.333z"/>
	<path style="fill:#DCD7C3;" d="M328.667,448.147c-6.767-4.397-16.059-7.647-24.834-7.647c-18.54,0-37.88,4.609-42,10.5
		c-3.297,4.715-0.509,14,9.534,14c10.042,0,61.027,0,61.027,0S343.833,458,328.667,448.147z"/>
</g>
<g style="opacity:0.5;">
	<path style="fill:#FFFFFF;" d="M411.279,195.279c-1.06,0-2.074,0.168-3.059,0.412c-3.319-3.585-8.026-5.864-13.297-5.864
		c-5.139,0-9.759,2.152-13.064,5.582c-3.301-3.406-7.861-5.582-12.979-5.582c-10.037,0-18.173,8.137-18.173,18.173H424
		C424,200.974,418.304,195.279,411.279,195.279z"/>
</g>
<path style="fill:#FFFFFF;" d="M400,152c0-11.913-9.658-21.571-21.571-21.571c-2.263,0-4.402,0.445-6.452,1.092
	c-6.494-9.335-17.266-15.473-29.5-15.473c-9.087,0-17.359,3.397-23.679,8.964c-5.262-6.546-13.307-10.76-22.36-10.76
	c-8.327,0-15.763,3.601-21.008,9.265c-1.556-0.386-3.157-0.651-4.833-0.651c-11.1,0-20.098,8.999-20.098,20.098h36.496
	c-1.278,2.757-2.042,5.797-2.042,9.036L400,152L400,152z"/>
<g style="opacity:0.5;">
	<path style="fill:#FFFFFF;" d="M256.167,76.542H296c0-6.28-5.091-11.371-11.371-11.371c-1.193,0-2.321,0.235-3.401,0.576
		c-3.423-4.921-9.102-8.156-15.55-8.156s-12.127,3.235-15.55,8.156c-1.081-0.341-2.208-0.576-3.401-0.576
		c-3.393,0-6.404,1.516-8.487,3.872c-3.625-2.421-7.884-3.959-12.572-3.959c-7.798,0-14.665,3.912-18.804,9.863
		c-1.307-0.412-2.67-0.696-4.113-0.696C195.156,74.25,189,80.406,189,88h73.333C262.333,83.211,259.879,79.003,256.167,76.542z"/>
</g>
<g>
</g>
<g>
</g>
<g>
</g>
<g>
</g>
<g>
</g>
<g>
</g>
<g>
</g>
<g>
</g>
<g>
</g>
<g>
</g>
<g>
</g>
<g>
</g>
<g>
</g>
<g>
</g>
<g>
</g>
</svg>
