<?xml version="1.0" encoding="iso-8859-1"?>
<!-- Generator: Adobe Illustrator 19.0.0, SVG Export Plug-In . SVG Version: 6.00 Build 0)  -->
<svg version="1.1" id="Layer_1" xmlns="http://www.w3.org/2000/svg" xmlns:xlink="http://www.w3.org/1999/xlink" x="0px" y="0px"
	 viewBox="0 0 512 512" style="enable-background:new 0 0 512 512;" xml:space="preserve">
<circle style="fill:#6464C8;" cx="256" cy="256" r="256"/>
<path style="fill:#8E64A0;" d="M472.401,119.297c-9.933-4.405-20.9-6.901-32.466-6.901c-5.018,0-9.921,0.483-14.684,1.365
	c-9.633-10.017-23.162-16.26-38.157-16.26c-29.242,0-52.948,23.706-52.948,52.948c0,19.248,10.272,36.094,25.632,45.363
	c1.03,26.344,14.759,49.426,35.241,63.291c-1.259,5.646-1.978,11.495-1.978,17.52c0,44.308,35.919,80.227,80.227,80.227
	c6.586,0,12.953-0.881,19.078-2.378C504.992,324.155,512,290.899,512,256C512,205.715,497.445,158.857,472.401,119.297z"/>
<path style="fill:#B86478;" d="M407.393,194.206c0.289-1.912,0.441-3.869,0.441-5.862c0-21.453-17.391-38.844-38.844-38.844
	c-2.739,0-5.411,0.287-7.99,0.827c-5.543-12.091-17.745-20.493-31.916-20.493c-19.386,0-35.102,15.716-35.102,35.102
	s15.716,35.102,35.102,35.102c0.949,0-15.75,29.541-15.75,47.281c0,34.253,27.768,62.021,62.021,62.021s62.021-27.768,62.021-62.021
	C437.375,224.789,425.361,205.068,407.393,194.206z"/>
<circle style="fill:#DC6455;" cx="279.22" cy="194.11" r="53.29"/>
<path style="fill:#5A5A82;" d="M403,286.5c-6.88,0-17.5,9.5-23.313,9.5c-6.88,0-58.687-78.5-70.187-82.5
	c-8.247-2.869-15.5,0.5-23.5,0.5c-10,0-46.5-22-57.676-22C214.5,192,98.449,297.157,76.962,312C69,317.5,38,306,3.116,295.919
	C22.289,418.34,128.197,512,256,512c111.567,0,206.413-71.394,241.478-170.969C457.124,317.804,407.2,286.5,403,286.5z"/>
<path style="fill:#DC6455;" d="M86.5,318.5c30.667-22.667,36.5-20.5,37-16c0.718,6.46-54,47.667-50,53s77.833-62.833,81.167-60.833
	c3.333,2-48.5,56.5-45.167,59.833s83.167-84.5,85.833-83.167c2.667,1.333-76.334,109.667-73,115c3.333,5.333,75-103.333,85-99.333
	c6.667,2.667-8.723,57.939,0.667,70.333c16.667,22,42,117.334,47.771,154.662c0.077,0,0.153,0.005,0.229,0.005
	c4.121,0,8.167-0.296,12.24-0.488C266,472,245.333,384,230.667,352.667c-4.076-8.708,14.236-58.005,22.667-54
	C280,311.333,326.667,360,340,378.667c7.435,10.409,50,45.333,88.37,66.316c2.783-2.542,5.579-5.062,8.247-7.722
	c-28.617-15.928-72.829-53.588-77.951-67.928C352,350.667,336,296,341.333,294.667s51.167,29.833,68,52
	c6.048,7.964,23.167,38.833,59.768,50.907c11.632-17.482,21.282-36.396,28.376-56.542C457.124,317.804,407.2,286.5,403,286.5
	c-6.88,0-17.5,9.5-23.313,9.5c-6.88,0-58.687-78.5-70.187-82.5c-8.248-2.869-15.5,0.5-23.5,0.5c-10,0-46.5-22-57.676-22
	C214.5,192,98.449,297.157,76.962,312C76.962,312,55.833,341.167,86.5,318.5z"/>
<path style="fill:#FFC87D;" d="M495.459,346.217c-20.603-11.59-74.762-41.708-77.459-39.551c-3.333,2.667,42.667,31.333,44,34.667
	c1.333,3.333-18.333-3-26-5.667c-14.358-4.994-22.976-4.789-3.333,6c23.667,13,35,24,48.913,34.917
	C486.845,366.823,491.496,356.698,495.459,346.217z"/>
<g>
	<path style="fill:#DC6455;" d="M436.289,374.523c-1.32-0.359-32.422-8.797-41.297-12.891c-9-4.156-45.391-58.273-56.328-74.758
		l6.672-4.422c22.055,33.242,47.914,69.234,53.023,71.922c8.25,3.805,39.703,12.344,40.023,12.43L436.289,374.523z"/>
	<path style="fill:#DC6455;" d="M399.695,439.445c-8.914-3.938-17.336-7.656-19.352-12.359c-2.297-5.359-3.578-10.805-4.82-16.07
		c-1.938-8.227-3.766-16-9.148-22.281l-6.078,5.203c4.125,4.805,5.656,11.344,7.438,18.914c1.258,5.336,2.68,11.391,5.25,17.391
		c3.258,7.594,12.633,11.734,23.477,16.523c6.203,2.74,12.808,5.667,18.78,9.439c2.177-1.735,4.399-3.41,6.518-5.214
		C414.604,446.091,406.704,442.542,399.695,439.445z"/>
	<path style="fill:#DC6455;" d="M240.883,443.461c0.781,12.016-3.094,16.555-8.461,22.844c-6.616,7.737-14.639,17.456-15.402,42.688
		c2.64,0.404,5.293,0.762,7.959,1.084c0.519-23.06,7.368-31.373,13.521-38.577c5.586-6.539,11.359-13.297,10.367-28.555
		L240.883,443.461z"/>
</g>
<g>
	<path style="fill:#5F5FA5;" d="M408.31,461.609c-18.859-9.224-40.818-17.255-48.976-22.276c-17.333-10.667-27.6-9.2-30-6
		c-8,10.667-10.751,43.246-18.601,72.628C346.667,498.121,379.765,482.803,408.31,461.609z"/>
	<path style="fill:#5F5FA5;" d="M194.667,426.667C186.667,424,178.333,338,165,334c-8.757-2.627-89.097,22.549-134.793,42.675
		c27.509,51.364,72.005,92.266,126.009,115.145c16.364,6.471,32.14,11.525,46.219,14.524c0.003,0,0.007,0.002,0.011,0.002
		c2.501-31.381,19.393-67.451,16.221-71.68C214.667,429.333,202.667,429.333,194.667,426.667z"/>
</g>
<path style="fill:#5A5A82;" d="M145.333,363.333c-3.789-6.063-68.667,14.667-104.34,31.572
	c22.379,34.578,52.956,63.257,88.864,83.661C141.12,460.5,157.677,432.354,155,427c-4-8-14,3-19,1S150.333,371.333,145.333,363.333z
	"/>
<circle style="fill:#FFC87D;" cx="265.66" cy="209.01" r="34.375"/>
<circle style="fill:#FFFFFF;" cx="262.67" cy="218.33" r="24.798"/>
<path style="fill:#FFC87D;" d="M98,303.5c-4.446-6.224,69.363-42.226,93.5-54c20.5-10,35.001-40,49-36.5c6.667,1.667,5,17,13,21
	c6.648,3.324,33-18,40-5s11.335,11.868,21.5,20c10,8,17.5,89.5,35.5,118.75c6.712,10.907-1.25,19.25-18.25-19.25
	c-6.339-14.355-22.417-65-26.25-76.5c-2.761-8.284-15.5-20.5-29.5-18.5c-11.549,1.65-28.5,18.167-41.5,43.5
	c-5.833,11.367-13.166,51.982-18.667,51c-9.333-1.667,16.755-74.2,6.333-78.667C213.333,265.333,187.5,305,183,302.5s23-34,19.5-40
	C199.229,256.893,100.5,307,98,303.5z"/>
<g>
	<circle style="fill:#DC6455;" cx="212" cy="154" r="5.333"/>
	<circle style="fill:#DC6455;" cx="152" cy="213.33" r="5.333"/>
	<circle style="fill:#DC6455;" cx="203.33" cy="98" r="5.333"/>
</g>
<g>
	<circle style="fill:#FFFFFF;" cx="153.33" cy="122" r="5.333"/>
	<circle style="fill:#FFFFFF;" cx="266.67" cy="100" r="5.333"/>
</g>
<circle style="fill:#DC6455;" cx="294.67" cy="114.67" r="5.333"/>
<g>
	<circle style="fill:#8E64A0;" cx="292.67" cy="68" r="5.333"/>
	<circle style="fill:#8E64A0;" cx="170.33" cy="74" r="5.333"/>
	<circle style="fill:#8E64A0;" cx="120.33" cy="125" r="5.333"/>
	<circle style="fill:#8E64A0;" cx="365.67" cy="58" r="5.333"/>
	<circle style="fill:#8E64A0;" cx="120" cy="236" r="5.333"/>
	<circle style="fill:#8E64A0;" cx="127" cy="184" r="5.333"/>
	<circle style="fill:#8E64A0;" cx="78" cy="221.33" r="5.333"/>
	<circle style="fill:#8E64A0;" cx="218.33" cy="40" r="5.333"/>
</g>
<g>
	<circle style="fill:#FFC87D;" cx="232" cy="118" r="5.333"/>
	<circle style="fill:#FFC87D;" cx="174" cy="168.67" r="5.333"/>
	<circle style="fill:#FFC87D;" cx="244" cy="73.33" r="5.333"/>
</g>
<g>
</g>
<g>
</g>
<g>
</g>
<g>
</g>
<g>
</g>
<g>
</g>
<g>
</g>
<g>
</g>
<g>
</g>
<g>
</g>
<g>
</g>
<g>
</g>
<g>
</g>
<g>
</g>
<g>
</g>
</svg>
